<svg xmlns="http://www.w3.org/2000/svg" viewBox="0 0 40 40" width="40" height="40">
  <!-- Angle brackets representing code/browser -->
  <path d="M8 12 L2 20 L8 28" fill="none" stroke="#93c5fd" stroke-width="2.5" stroke-linecap="round" stroke-linejoin="round"/>
  <path d="M32 12 L38 20 L32 28" fill="none" stroke="#93c5fd" stroke-width="2.5" stroke-linecap="round" stroke-linejoin="round"/>
  <!-- Spider body -->
  <ellipse cx="20" cy="19" rx="3.2" ry="4" fill="#e0e7ff"/>
  <circle cx="20" cy="14" r="2.2" fill="#e0e7ff"/>
  <!-- Eyes -->
  <circle cx="19" cy="13.5" r="0.6" fill="#f97316"/>
  <circle cx="21" cy="13.5" r="0.6" fill="#f97316"/>
  <!-- 8 legs: 4 per side, curved outward -->
  <!-- Left legs -->
  <path d="M17 15.5 Q13 13 10.5 10" fill="none" stroke="#e0e7ff" stroke-width="1.2" stroke-linecap="round"/>
  <path d="M17 17.5 Q12 16 10 14.5" fill="none" stroke="#e0e7ff" stroke-width="1.2" stroke-linecap="round"/>
  <path d="M17 20.5 Q12 22 10 23.5" fill="none" stroke="#e0e7ff" stroke-width="1.2" stroke-linecap="round"/>
  <path d="M17 22.5 Q13 25 10.5 28" fill="none" stroke="#e0e7ff" stroke-width="1.2" stroke-linecap="round"/>
  <!-- Right legs -->
  <path d="M23 15.5 Q27 13 29.5 10" fill="none" stroke="#e0e7ff" stroke-width="1.2" stroke-linecap="round"/>
  <path d="M23 17.5 Q28 16 30 14.5" fill="none" stroke="#e0e7ff" stroke-width="1.2" stroke-linecap="round"/>
  <path d="M23 20.5 Q28 22 30 23.5" fill="none" stroke="#e0e7ff" stroke-width="1.2" stroke-linecap="round"/>
  <path d="M23 22.5 Q27 25 29.5 28" fill="none" stroke="#e0e7ff" stroke-width="1.2" stroke-linecap="round"/>
</svg>
