<svg xmlns="http://www.w3.org/2000/svg" viewBox="0 0 1200 630" width="1200" height="630">
  <defs>
    <linearGradient id="bg" x1="0" y1="0" x2="1" y2="1">
      <stop offset="0%" stop-color="#0f172a"/>
      <stop offset="100%" stop-color="#1e3a8a"/>
    </linearGradient>
  </defs>

  <!-- Background -->
  <rect width="1200" height="630" fill="url(#bg)"/>

  <!-- Spider logo (scaled from logo.svg, centered) -->
  <g transform="translate(556, 140) scale(2.5)">
    <path d="M8 12 L2 20 L8 28" fill="none" stroke="#3b82f6" stroke-width="2.5" stroke-linecap="round" stroke-linejoin="round"/>
    <path d="M32 12 L38 20 L32 28" fill="none" stroke="#3b82f6" stroke-width="2.5" stroke-linecap="round" stroke-linejoin="round"/>
    <ellipse cx="20" cy="19" rx="3.2" ry="4" fill="#3b82f6"/>
    <circle cx="20" cy="14" r="2.2" fill="#3b82f6"/>
    <circle cx="19" cy="13.5" r="0.6" fill="#f97316"/>
    <circle cx="21" cy="13.5" r="0.6" fill="#f97316"/>
    <path d="M17 15.5 Q13 13 10.5 10" fill="none" stroke="#3b82f6" stroke-width="1.2" stroke-linecap="round"/>
    <path d="M17 17.5 Q12 16 10 14.5" fill="none" stroke="#3b82f6" stroke-width="1.2" stroke-linecap="round"/>
    <path d="M17 20.5 Q12 22 10 23.5" fill="none" stroke="#3b82f6" stroke-width="1.2" stroke-linecap="round"/>
    <path d="M17 22.5 Q13 25 10.5 28" fill="none" stroke="#3b82f6" stroke-width="1.2" stroke-linecap="round"/>
    <path d="M23 15.5 Q27 13 29.5 10" fill="none" stroke="#3b82f6" stroke-width="1.2" stroke-linecap="round"/>
    <path d="M23 17.5 Q28 16 30 14.5" fill="none" stroke="#3b82f6" stroke-width="1.2" stroke-linecap="round"/>
    <path d="M23 20.5 Q28 22 30 23.5" fill="none" stroke="#3b82f6" stroke-width="1.2" stroke-linecap="round"/>
    <path d="M23 22.5 Q27 25 29.5 28" fill="none" stroke="#3b82f6" stroke-width="1.2" stroke-linecap="round"/>
  </g>

  <!-- Title -->
  <text x="600" y="380" text-anchor="middle" font-family="system-ui, -apple-system, 'Segoe UI', sans-serif" font-size="72" font-weight="700" fill="#ffffff">OneCrawl</text>

  <!-- Tagline -->
  <text x="600" y="430" text-anchor="middle" font-family="system-ui, -apple-system, 'Segoe UI', sans-serif" font-size="24" fill="#94a3b8">High-performance browser automation engine in Rust</text>

  <!-- Subtle bottom border accent -->
  <rect x="0" y="620" width="1200" height="10" fill="#3b82f6" opacity="0.6"/>
</svg>
